<?xml version="1.0" encoding="UTF-8"?>
<svg width="1063px" height="189px" viewBox="0 0 1063 189" version="1.1" xmlns="http://www.w3.org/2000/svg" xmlns:xlink="http://www.w3.org/1999/xlink">
    <title>Ease-Mind</title>
    <path d="M580 418Q580 429 571.5 434.5Q563 440 542 440H218V316H414Q434 316 445.0 321.5Q456 327 456 350H474V194H456Q456 217 445.0 223.5Q434 230 414 230H218V92H552Q567 92 576.5 99.0Q586 106 586 118H604V-19H586Q586 -4 576.5 -2.0Q567 0 552 0H86V18Q93 18 98.5 22.5Q104 27 104 36V490Q104 499 98.5 503.5Q93 508 86 508V526H542Q563 526 571.5 532.5Q580 539 580 550H598V418Z" transform="translate(0.0000,153) scale(0.200000,-0.200000)" fill="#F7B500" />
    <path d="M349 184 268 352 197 184ZM15 18Q27 20 34.5 29.5Q42 39 46 47L195 372Q201 386 204.5 394.5Q208 403 208 411Q208 417 205.5 418.5Q203 420 200 422V440H351V422Q348 420 344.5 419.0Q341 418 341 411Q341 405 345.5 396.5Q350 388 355 377L517 37Q522 28 528.0 24.0Q534 20 541 18V0H399V15Q404 15 409.5 18.0Q415 21 415 29Q415 35 413.0 40.0Q411 45 408 53L381 110H167L139 56Q135 48 132.5 41.5Q130 35 130 30Q130 22 135.0 20.0Q140 18 149 18V0H15Z" transform="translate(133.4000,153) scale(0.200000,-0.200000)" fill="#E02020" />
    <path d="M111 153Q111 149 110.5 144.5Q110 140 110 135Q110 120 129.0 107.5Q148 95 174.5 86.5Q201 78 227.5 73.0Q254 68 269 68Q283 68 303.5 70.0Q324 72 344.0 78.5Q364 85 378.0 96.5Q392 108 392 127Q392 149 367.5 159.0Q343 169 306.0 174.5Q269 180 226.0 185.5Q183 191 146.0 203.5Q109 216 84.5 239.5Q60 263 60 306Q60 370 113.0 408.0Q166 446 262 446Q309 446 342.5 438.5Q376 431 399.0 422.0Q422 413 436.5 405.5Q451 398 458 398Q466 398 470.0 400.5Q474 403 480 406L491 395L441 301L423 307Q422 313 421.0 319.0Q420 325 412 331Q392 348 350.0 360.0Q308 372 256 372Q236 372 218.0 369.5Q200 367 186.0 361.0Q172 355 164.0 345.5Q156 336 156 322Q156 300 180.5 290.5Q205 281 242.0 275.5Q279 270 322.0 264.5Q365 259 402.0 246.0Q439 233 463.5 208.0Q488 183 488 139Q488 95 466.5 67.0Q445 39 413.0 23.0Q381 7 342.5 2.0Q304 -3 270 -3Q236 -3 202.5 3.5Q169 10 141.5 18.5Q114 27 95.0 34.5Q76 42 72 42Q65 42 60 36L46 46L92 158Z" transform="translate(244.6000,153) scale(0.200000,-0.200000)" fill="#E02020" />
    <path d="M468 347Q468 366 437 366H193V266H347Q364 266 372.0 268.5Q380 271 380 282H398V176H378Q381 187 370.0 189.5Q359 192 339 192H193V74H449Q461 74 469.0 79.5Q477 85 477 94H495V-11H477Q477 -2 469.0 -1.0Q461 0 449 0H82V18Q87 18 92.0 21.5Q97 25 97 33V407Q97 415 92.0 418.5Q87 422 82 422V440H437Q468 440 468 458H486V347Z" transform="translate(355.8000,153) scale(0.200000,-0.200000)" fill="#E02020" />
    <path d="M250 504H825Q893 504 893 442Q893 379 821 379H246Q178 381 178.0 442.5Q178 504 250 504Z" transform="translate(467.0000,153) scale(0.097656,-0.097656)" fill="#E02020" />
    <path d="M88 18Q96 18 102.0 22.5Q108 27 108 36V492Q108 501 102.0 504.5Q96 508 88 508V526H275V508Q270 508 264.5 505.0Q259 502 259 496Q259 491 263.0 483.0Q267 475 272 466L415 206L559 463Q566 476 569.5 483.5Q573 491 573 497Q573 508 560 508V526H745V508Q737 508 731.0 504.5Q725 501 725 492V36Q725 27 731.0 22.5Q737 18 745 18V0H588V18Q615 18 615 36V368H613L412 0H409L212 369H210V36Q210 18 238 18V0H88Z" transform="translate(571.9805,153) scale(0.200000,-0.200000)" fill="#FA6400" />
    <path d="M90 18Q106 18 112.0 21.5Q118 25 118 33V407Q118 415 112.0 418.5Q106 422 90 422V440H242V422Q214 422 214 407V33Q214 18 242 18V0H90Z" transform="translate(738.5805,153) scale(0.200000,-0.200000)" fill="#E02020" />
    <path d="M81 18Q99 18 99 33V407Q99 422 81 422V440H228V422Q221 421 221 417Q221 412 243 390L483 136V407Q483 422 463 422V440H585V422Q567 422 567 407V33Q567 18 585 18V0H455V18Q462 18 462 23Q462 27 452.5 37.0Q443 47 431 60L183 324V33Q183 18 204 18V0H81Z" transform="translate(805.1805,153) scale(0.200000,-0.200000)" fill="#E02020" />
    <path d="M316 74Q347 74 375.0 78.5Q403 83 424.0 98.5Q445 114 457.5 143.5Q470 173 470 223Q470 273 457.5 301.5Q445 330 424.0 344.5Q403 359 375.0 362.5Q347 366 316 366H186V74ZM67 18Q90 18 90 33V407Q90 422 67 422V440H345Q404 440 446.0 421.0Q488 402 514.5 371.5Q541 341 553.5 301.5Q566 262 566 220Q566 178 554.0 138.5Q542 99 516.0 68.5Q490 38 449.0 19.0Q408 0 349 0H67Z" transform="translate(938.5805,153) scale(0.200000,-0.200000)" fill="#E02020" />
</svg>