<?xml version="1.0" encoding="UTF-8"?>
<svg width="1450px" height="340px" viewBox="0 0 1450 340" version="1.1" xmlns="http://www.w3.org/2000/svg">
  <title>Ease-Mind</title>
  <g stroke="none" stroke-width="1" fill-rule="evenodd">
    <path d="M1041 171V0H203V1552H1025V1396H405V869H963V714H405V171Z" transform="translate(0.000,300) scale(0.146484,-0.146484)" fill="#F7B500" />
    <path d="M889 251Q804 111 684.5 40.0Q565 -31 465 -31Q325 -31 213.5 90.0Q102 211 102 457Q102 651 176.0 803.5Q250 956 374.0 1044.5Q498 1133 681 1133Q734 1133 841 1122Q857 1120 889 1117H1076V328Q1076 126 1118 0H924Q902 92 889 251ZM889 472V951Q790 977 705 977Q533 977 418.5 844.0Q304 711 304 482Q304 316 366.5 231.5Q429 147 509 147Q596 147 701.0 235.0Q806 323 889 472Z" transform="translate(160.029,300) scale(0.146484,-0.146484)" fill="#E02020" />
    <path d="M168 59V256Q280 183 405.0 153.5Q530 124 617 124Q758 124 820.0 169.5Q882 215 882 283Q882 328 853 360Q824 392 709 439L645 465L516 516Q308 597 254 666Q199 734 199 832Q199 970 305.5 1059.0Q412 1148 651 1148Q830 1148 990 1096V927Q806 993 644 993Q526 993 459.5 951.5Q393 910 393 848Q393 788 451 752Q508 716 637 669L763 623Q936 560 1006 486Q1076 412 1076 301Q1076 156 964.5 62.5Q853 -31 608 -31Q394 -31 168 59Z" transform="translate(320.059,300) scale(0.146484,-0.146484)" fill="#E02020" />
    <path d="M1084 74Q861 -32 662 -32Q511 -32 392.0 43.0Q273 118 201.5 257.5Q130 397 130 556Q130 709 198.0 850.0Q266 991 388.0 1069.5Q510 1148 660 1148Q859 1148 979.5 1006.0Q1100 864 1100 568V528H330Q330 412 378.5 316.0Q427 220 506.0 172.0Q585 124 686 124Q866 124 1084 244ZM341 667H898V694Q898 831 831.0 912.0Q764 993 652 993Q539 993 456.5 910.5Q374 828 341 667Z" transform="translate(480.088,300) scale(0.146484,-0.146484)" fill="#E02020" />
    <path d="M227 551V706H1003V551Z" transform="translate(640.117,300) scale(0.146484,-0.146484)" fill="#E02020" />
    <path d="M219 0H56V1552H259L617 530L975 1552H1173V0H987V989L992 1125H987L943 989L703 310H501L258 989L219 1125H214L219 989Z" transform="translate(800.146,300) scale(0.146484,-0.146484)" fill="#FA6400" />
    <path d="M468 0V962H158V1117H654V155H965V0ZM437 1520Q437 1583 480.0 1614.0Q523 1645 561 1645Q600 1645 643.0 1614.0Q686 1583 686 1520Q686 1458 643.0 1427.0Q600 1396 561 1396Q523 1396 480.0 1427.0Q437 1458 437 1520Z" transform="translate(960.176,300) scale(0.146484,-0.146484)" fill="#E02020" />
    <path d="M155 0V1117H341V873Q421 1002 534.0 1075.0Q647 1148 760 1148Q859 1148 940.0 1095.5Q1021 1043 1053.5 958.0Q1086 873 1086 624V0H900V647Q900 808 884.5 859.5Q869 911 827.5 944.0Q786 977 737 977Q639 977 526.5 884.0Q414 791 341 651V0Z" transform="translate(1120.205,300) scale(0.146484,-0.146484)" fill="#E02020" />
    <path d="M901 251Q816 111 696.5 40.0Q577 -31 477 -31Q337 -31 225.5 90.0Q114 211 114 457Q114 651 188.0 803.5Q262 956 386.0 1044.5Q510 1133 693 1133Q746 1133 853 1122Q869 1120 901 1117V1614H1088V0H901ZM901 472V951Q802 977 717 977Q545 977 430.5 844.0Q316 711 316 482Q316 316 378.5 231.5Q441 147 521 147Q608 147 713.0 235.0Q818 323 901 472Z" transform="translate(1280.234,300) scale(0.146484,-0.146484)" fill="#E02020" />
  </g>
</svg>